<svg width="48" height="48" viewBox="0 0 48 48" fill="none" xmlns="http://www.w3.org/2000/svg">
<path d="M33 33.5078H15V43.6643H33V33.5078Z" fill="#333333"/>
<path d="M15 35.2656H25.71L15 40.6941V35.2656Z" fill="black"/>
<path d="M35.3858 45.7334H12.6128C11.7293 45.7334 11.0078 45.0104 11.0078 44.1284C11.0078 43.2449 11.7308 42.5234 12.6128 42.5234H35.3843C36.2678 42.5234 36.9893 43.2464 36.9893 44.1284C36.9908 45.0104 36.2678 45.7334 35.3858 45.7334Z" fill="#999999"/>
<path d="M45 35.2656H3C1.35 35.2656 0 33.9156 0 32.2656V5.26562C0 3.61562 1.35 2.26562 3 2.26562H45C46.65 2.26562 48 3.61562 48 5.26562V32.2656C48 33.9156 46.65 35.2656 45 35.2656Z" fill="#D6D6D6"/>
<path d="M45.9486 4.32031H2.05859V33.2073H45.9486V4.32031Z" fill="#0BA4E0"/>
<path d="M11.2188 18.4002L19.8273 14.2227V15.8562L12.9993 19.0347V19.0707L19.8273 22.2672V23.8842L11.2188 19.7082V18.4002Z" fill="white"/>
<path d="M21.0879 24.6123L25.5204 11.4453H27.0819L22.6494 24.6123H21.0879Z" fill="white"/>
<path d="M36.7823 19.7442L28.1738 23.8857V22.2687L35.1128 19.0722V19.0362L28.1738 15.8397V14.2227L36.7823 18.3642V19.7442Z" fill="white"/>
</svg>
